<svg width="48" height="10" viewBox="0 0 48 10" fill="none" xmlns="http://www.w3.org/2000/svg">
<path d="M3.28109 6.69C3.28109 7.24333 3.17109 7.72667 2.95109 8.14C2.73109 8.55333 2.42109 8.87 2.02109 9.09C1.62776 9.31667 1.16776 9.43 0.641094 9.43H0.361094L0.271094 8.45H0.631094C0.984427 8.45 1.29109 8.38 1.55109 8.24C1.81109 8.10667 2.00776 7.90667 2.14109 7.64C2.27443 7.37333 2.34109 7.05667 2.34109 6.69V3.73H3.28109V6.69ZM6.59273 6.02C6.62607 6.02 6.6494 6.05333 6.66273 6.12C6.68273 6.18667 6.69273 6.32333 6.69273 6.53C6.69273 6.73 6.68273 6.86 6.66273 6.92C6.6494 6.97333 6.62607 7 6.59273 7H6.31273C5.96607 7 5.67273 6.93 5.43273 6.79C5.1994 6.65 5.02273 6.45 4.90273 6.19C4.78273 5.92333 4.72273 5.6 4.72273 5.22V0.54H5.66273V5.16C5.66273 5.45333 5.7194 5.67 5.83273 5.81C5.95273 5.95 6.1294 6.02 6.36273 6.02H6.59273ZM7.59687 6.02C7.75021 6.02 7.88354 5.99333 7.99688 5.94C8.11687 5.88667 8.20687 5.81 8.26687 5.71C8.33354 5.60333 8.36688 5.48 8.36688 5.34V3.73H9.30687V5.31C9.30687 5.54333 9.37021 5.72 9.49687 5.84C9.62354 5.96 9.81021 6.02 10.0569 6.02H10.3669C10.3935 6.02 10.4169 6.05333 10.4369 6.12C10.4569 6.18667 10.4669 6.31667 10.4669 6.51C10.4669 6.71 10.4569 6.84333 10.4369 6.91C10.4169 6.97 10.3935 7 10.3669 7H10.0169C9.72354 7 9.47688 6.95333 9.27688 6.86C9.07688 6.76667 8.93021 6.62667 8.83688 6.44C8.71688 6.62667 8.55021 6.76667 8.33687 6.86C8.13021 6.95333 7.88354 7 7.59687 7H6.39687C6.37021 7 6.34687 6.97 6.32687 6.91C6.30687 6.85 6.29687 6.72333 6.29687 6.53C6.29687 6.32333 6.30687 6.18667 6.32687 6.12C6.34687 6.05333 6.37021 6.02 6.39687 6.02H7.59687ZM7.13687 9.12V8.21H8.14688V9.12H7.13687ZM5.50687 9.12V8.21H6.51687V9.12H5.50687ZM11.3115 6.02C11.1982 5.88667 11.1115 5.73333 11.0515 5.56C10.9982 5.38 10.9715 5.19 10.9715 4.99C10.9715 4.60333 11.0548 4.26 11.2215 3.96C11.3882 3.65333 11.6182 3.41 11.9115 3.23C12.2115 3.05 12.5582 2.96 12.9515 2.96C13.2048 2.96 13.4482 2.99333 13.6815 3.06C13.9215 3.12667 14.1682 3.24 14.4215 3.4L14.1015 4.18C13.8882 4.08 13.6882 4.01 13.5015 3.97C13.3148 3.93 13.1315 3.91 12.9515 3.91C12.7515 3.91 12.5715 3.95667 12.4115 4.05C12.2582 4.13667 12.1348 4.26333 12.0415 4.43C11.9548 4.59 11.9115 4.77667 11.9115 4.99C11.9115 5.19 11.9515 5.37 12.0315 5.53C12.1182 5.68333 12.2348 5.80333 12.3815 5.89C12.5348 5.97667 12.7115 6.02 12.9115 6.02H14.6815L14.6015 7H10.1715C10.1448 7 10.1215 6.97 10.1015 6.91C10.0815 6.85 10.0715 6.72333 10.0715 6.53C10.0715 6.32333 10.0815 6.18667 10.1015 6.12C10.1215 6.05333 10.1448 6.02 10.1715 6.02H11.3115ZM18.488 4.38C18.488 3.72667 18.4546 3.16333 18.388 2.69C18.3213 2.21 18.188 1.63333 17.988 0.96L18.908 0.64C19.1146 1.31333 19.2513 1.90333 19.318 2.41C19.3913 2.91667 19.428 3.57 19.428 4.37V7H18.488V4.38ZM23.5409 0.67C23.6676 1.45 23.8243 2.17 24.0109 2.83C24.2043 3.48333 24.4376 4.11333 24.7109 4.72C24.9843 5.32 25.3109 5.92333 25.6909 6.53L24.9109 7.09C24.5909 6.57667 24.3076 6.06667 24.0609 5.56C23.8209 5.04667 23.6176 4.53 23.4509 4.01C23.2843 3.48333 23.1576 2.94667 23.0709 2.4C22.9776 2.96 22.8509 3.50333 22.6909 4.03C22.5309 4.55667 22.3343 5.08 22.1009 5.6C21.8743 6.11333 21.6076 6.61 21.3009 7.09L20.4809 6.53C20.8409 5.97 21.1543 5.39667 21.4209 4.81C21.6876 4.21667 21.9209 3.58333 22.1209 2.91C22.3209 2.23667 22.4976 1.49 22.6509 0.67H23.5409ZM34.1166 7.12C34.1166 6.99333 34.0899 6.88667 34.0366 6.8C33.9899 6.71333 33.9166 6.65 33.8166 6.61C33.7166 6.56333 33.5899 6.54 33.4366 6.54H31.5366V4.69C31.5366 4.32333 31.6132 3.99667 31.7666 3.71C31.9266 3.42333 32.1466 3.2 32.4266 3.04C32.7132 2.88 33.0432 2.8 33.4166 2.8H34.6866L34.7766 3.74H33.4166C33.1366 3.74 32.9099 3.82667 32.7366 4C32.5699 4.16667 32.4866 4.39333 32.4866 4.68V5.56H33.5966C34.0899 5.56 34.4566 5.69 34.6966 5.95C34.9432 6.21 35.0666 6.58333 35.0666 7.07C35.0666 7.49 34.9432 7.88 34.6966 8.24C34.4499 8.60667 34.1166 8.89667 33.6966 9.11C33.2766 9.32333 32.8132 9.43 32.3066 9.43H31.5366C30.9766 9.43 30.4966 9.32 30.0966 9.1C29.7032 8.88 29.4032 8.56 29.1966 8.14C28.9966 7.72667 28.8966 7.22667 28.8966 6.64V4.73H29.8366V6.62C29.8366 7.02 29.8999 7.35333 30.0266 7.62C30.1599 7.89333 30.3532 8.1 30.6066 8.24C30.8599 8.38 31.1766 8.45 31.5566 8.45H32.3066C32.6732 8.45 32.9932 8.39 33.2666 8.27C33.5399 8.15667 33.7499 8 33.8966 7.8C34.0432 7.60667 34.1166 7.38 34.1166 7.12ZM36.5114 0.54H37.4514V6.02H38.6814C38.8281 6.02 38.9581 5.99333 39.0714 5.94C39.1847 5.88667 39.2714 5.81 39.3314 5.71C39.3981 5.60333 39.4314 5.48 39.4314 5.34V0.54H40.3714V5.29C40.3714 5.53667 40.4347 5.72 40.5614 5.84C40.6947 5.96 40.8714 6.02 41.0914 6.02H41.3514C41.3781 6.02 41.4014 6.05333 41.4214 6.12C41.4414 6.18667 41.4514 6.32333 41.4514 6.53C41.4514 6.72333 41.4414 6.85 41.4214 6.91C41.4014 6.97 41.3781 7 41.3514 7H41.0514C40.7647 7 40.5214 6.95333 40.3214 6.86C40.1281 6.76 39.9881 6.61667 39.9014 6.43C39.7881 6.61667 39.6281 6.76 39.4214 6.86C39.2147 6.95333 38.9681 7 38.6814 7H36.5114V0.54ZM42.0543 0.54H42.9943V4.51C43.3876 3.93667 43.7743 3.52333 44.1543 3.27C44.541 3.01667 44.931 2.89 45.3243 2.89C45.691 2.89 46.0176 2.97667 46.3043 3.15C46.5976 3.32333 46.8243 3.56333 46.9843 3.87C47.151 4.17667 47.2343 4.53333 47.2343 4.94C47.2343 5.34667 47.1476 5.70667 46.9743 6.02C46.801 6.32667 46.5543 6.56667 46.2343 6.74C45.9143 6.91333 45.5376 7 45.1043 7H41.1543C41.1276 7 41.1043 6.97 41.0843 6.91C41.0643 6.85 41.0543 6.72333 41.0543 6.53C41.0543 6.32333 41.0643 6.18667 41.0843 6.12C41.1043 6.05333 41.1276 6.02 41.1543 6.02H42.0543V0.54ZM45.1043 6.02C45.4776 6.02 45.7676 5.92333 45.9743 5.73C46.181 5.53667 46.2843 5.27333 46.2843 4.94C46.2843 4.72 46.241 4.52667 46.1543 4.36C46.0676 4.19333 45.9443 4.06667 45.7843 3.98C45.6243 3.88667 45.4476 3.84 45.2543 3.84C44.901 3.84 44.541 4.01333 44.1743 4.36C43.8076 4.70667 43.391 5.26 42.9243 6.02H45.1043Z" fill="#7D7E7F"/>
</svg>
