<svg width="32" height="32" viewBox="0 0 32 32" fill="none" xmlns="http://www.w3.org/2000/svg">
<path d="M29.8655 15.5558C30.3099 15.8225 30.3099 16.178 29.8655 16.4447L12.7099 26.4891C12.2655 26.7558 11.6433 26.7558 11.1988 26.4891L2.13216 21.1558C1.68772 20.8891 1.68772 20.5336 2.13216 20.2669L19.3766 10.2225C19.8211 9.95579 20.4433 9.95579 20.8877 10.2225L29.8655 15.5558Z" fill="#FFE9CC"/>
<path d="M12.444 20.1779L12.0885 26.6668C11.7329 26.6668 11.4662 26.6668 11.1996 26.489L2.1329 21.1557C1.86623 21.0668 1.77734 20.889 1.77734 20.7113C1.77734 20.6224 1.86623 20.5335 2.04401 20.4446L7.19957 17.4224L12.444 20.1779Z" fill="#FFDA61"/>
<path d="M30.2212 15.9114L28.8879 10.667L12.4434 20.1781L12.0879 26.5781L30.2212 15.9114Z" fill="url(#paint0_linear_2_2373)"/>
<path d="M12.444 20.1779L12.0885 26.5779L1.77734 20.7112V20.6223L3.11068 15.0223L7.28846 17.3334L12.444 20.1779Z" fill="#F9BF41"/>
<path d="M28.6224 10.3113C28.978 10.489 28.978 10.8446 28.6224 11.1113L12.978 20.1779C12.6224 20.3557 12.0002 20.3557 11.6447 20.1779L3.37799 15.3779C3.02244 15.2002 3.02244 14.8446 3.37799 14.5779L19.0224 5.51126C19.378 5.33349 20.0002 5.33349 20.3558 5.51126L28.6224 10.3113Z" fill="url(#paint1_linear_2_2373)"/>
<g opacity="0.5">
<path d="M6.75511 16.178L11.9107 18.6669C12.1773 18.7558 12.444 18.7558 12.7107 18.6669L23.3773 13.1558C23.5551 13.0669 23.4662 12.8892 23.2884 12.8892C17.1551 14.4003 11.4662 15.5558 6.844 15.8225C6.66622 15.8225 6.57733 16.0892 6.75511 16.178Z" fill="#FFDA61"/>
</g>
<g opacity="0.4">
<path d="M24.6219 8.5335C24.7108 8.62239 21.7775 8.35572 21.5997 8.35572C17.6886 8.08905 13.4219 10.5779 9.24414 11.6446L19.4664 6.40016C19.6441 6.31127 19.8219 6.31127 19.9997 6.40016C20.6219 6.66683 23.8219 8.17794 24.6219 8.5335Z" fill="white"/>
</g>
<g opacity="0.5">
<path d="M26.6656 12.2666C22.3989 15.111 17.6878 17.8666 13.5989 20.0888C13.1545 20.3555 12.7989 20.7999 12.71 21.3333L12.1767 24.8888L12.0878 21.4222C12.0878 20.7999 11.7322 20.2666 11.1989 19.9999C10.2211 19.4666 9.33225 18.9333 8.35447 18.3999C7.02114 17.6888 5.77669 16.8888 4.44336 16.0888C5.86558 16.711 7.19892 17.2444 8.53225 17.9555C9.51003 18.3999 10.5767 18.9333 11.5545 19.3777C12.0878 19.6444 12.71 19.6444 13.2434 19.2888C18.6656 16.1777 23.7323 13.5999 26.6656 12.2666Z" fill="white"/>
</g>
<g opacity="0.4">
<path d="M29.3324 14.3114L28.7102 12.0003C28.7102 11.8225 28.5324 11.8225 28.4435 11.9114L26.488 13.2447C26.3991 13.3336 26.488 13.4225 26.5769 13.4225C27.7324 13.2447 28.6213 13.6003 29.2435 14.4892C29.3324 14.4003 29.4213 14.4003 29.3324 14.3114Z" fill="white"/>
</g>
<g opacity="0.4">
<path d="M5.77708 17.4224L3.73264 16.1779C3.64375 16.089 3.46597 16.1779 3.46597 16.2668L2.84375 18.6668C2.84375 18.7557 2.93264 18.8446 3.02153 18.7557C3.73264 17.8668 4.62153 17.4224 5.68819 17.6002C5.77708 17.6002 5.77708 17.5113 5.77708 17.4224Z" fill="white"/>
</g>
<path d="M13.4602 20.8673C13.2751 20.8673 13.1825 21.051 13.2751 21.2347C14.6632 22.8878 14.6632 23.0714 13.09 21.4184C12.9974 21.3265 12.7198 21.3265 12.7198 21.5102C12.5347 23.3469 12.3496 25 12.2571 25C12.1645 25 12.1645 23.3469 12.1645 21.5102C12.1645 21.3265 11.9794 21.2347 11.7943 21.3265C10.036 22.7041 10.036 22.7041 11.6093 21.1429C11.7018 21.051 11.7018 20.7755 11.5167 20.7755C9.66581 20.5918 8 20.4082 8 20.3163C8 20.2245 9.66581 20.2245 11.5167 20.2245C11.7018 20.2245 11.7943 20.0408 11.7018 19.8571C11.1465 19.1224 10.5913 18.5714 10.6838 18.4796C10.7763 18.4796 11.2391 18.9388 11.8869 19.5816C11.9794 19.6735 12.2571 19.6735 12.2571 19.4898C12.4422 17.6531 12.6272 16 12.7198 16C12.8123 16 12.8123 17.6531 12.8123 19.4898C12.8123 19.6735 12.9974 19.7653 13.1825 19.6735C14.9409 18.2041 14.9409 18.3878 13.3676 19.8571C13.2751 19.949 13.2751 20.2245 13.4602 20.2245C18.1799 20.6837 18.1799 20.8673 13.4602 20.8673Z" fill="white"/>
<path d="M9.99974 17.6224C9.93804 17.6224 9.90719 17.6837 9.93804 17.7449C10.4008 18.2959 10.4008 18.3571 9.87635 17.8061C9.8455 17.7755 9.75295 17.7755 9.75295 17.8367C9.69126 18.449 9.62956 19 9.59871 19C9.56786 19 9.56786 18.449 9.56786 17.8367C9.56786 17.7755 9.50617 17.7449 9.44447 17.7755C8.85835 18.2347 8.85835 18.2347 9.38277 17.7143C9.41362 17.6837 9.41362 17.5918 9.35192 17.5918C8.73496 17.5306 8.17969 17.4694 8.17969 17.4388C8.17969 17.4082 8.73496 17.4082 9.35192 17.4082C9.41362 17.4082 9.44447 17.3469 9.41362 17.2857C9.22853 17.0408 9.04344 16.8571 9.07429 16.8265C9.10514 16.8265 9.25938 16.9796 9.47532 17.1939C9.50617 17.2245 9.59871 17.2245 9.59871 17.1633C9.66041 16.551 9.7221 16 9.75295 16C9.7838 16 9.7838 16.551 9.7838 17.1633C9.7838 17.2245 9.8455 17.2551 9.90719 17.2245C10.4933 16.7347 10.4933 16.7959 9.96889 17.2857C9.93804 17.3163 9.93804 17.4082 9.99974 17.4082C11.573 17.5612 11.573 17.6224 9.99974 17.6224Z" fill="white"/>
<g opacity="0.4">
<path d="M19.021 22.1334L13.3322 25.4223C13.0655 25.6 12.7988 25.3334 12.7988 25.0667L13.0655 22.4889C13.0655 22.4 13.2433 22.3111 13.2433 22.4C13.9544 23.2889 16.7988 22.6667 18.9322 21.8667C19.021 21.9556 19.1099 22.0445 19.021 22.1334Z" fill="white"/>
</g>
<g opacity="0.4">
<path d="M8.17732 24.0002L11.1995 25.6891C11.3773 25.778 11.4662 25.6891 11.4662 25.4224V22.578C11.4662 22.4891 11.2884 22.4002 11.2884 22.4891C10.7551 23.4669 9.86621 24.0002 8.26621 23.7335C8.17732 23.8224 8.08843 23.9113 8.17732 24.0002Z" fill="white"/>
</g>
<defs>
<linearGradient id="paint0_linear_2_2373" x1="29" y1="12" x2="13" y2="26" gradientUnits="userSpaceOnUse">
<stop stop-color="#FFA62E"/>
<stop offset="1" stop-color="#F3D63F"/>
</linearGradient>
<linearGradient id="paint1_linear_2_2373" x1="19.5" y1="5" x2="12" y2="20" gradientUnits="userSpaceOnUse">
<stop stop-color="#FFB761"/>
<stop offset="0.5" stop-color="#FAC73D"/>
<stop offset="1" stop-color="#EBAC00"/>
</linearGradient>
</defs>
</svg>
