<svg width="18" height="11" viewBox="0 0 18 11" fill="none" xmlns="http://www.w3.org/2000/svg">
<path d="M11.3639 10.1518V9.47712H12.202V10.1518H11.3639ZM9.42174 10.1518V9.47712H10.2598V10.1518H9.42174ZM16.875 7.55106C16.875 8.16044 16.7568 8.68638 16.5204 9.12891C16.284 9.57868 15.9581 9.91964 15.5426 10.1518C15.1272 10.3839 14.658 10.5 14.135 10.5H13.8449L13.7804 9.91239H14.0921C14.5505 9.91239 14.9445 9.81808 15.274 9.62946C15.6035 9.4481 15.8578 9.17606 16.0369 8.81334C16.216 8.45787 16.3055 8.03711 16.3055 7.55106V4.47154H16.875V7.55106ZM11.2564 7.21373C11.2851 7.21373 11.3102 7.23549 11.3317 7.27902C11.3532 7.32255 11.3639 7.40234 11.3639 7.51841C11.3639 7.64174 11.3532 7.72154 11.3317 7.75781C11.3102 7.79409 11.2851 7.81222 11.2564 7.81222H11.0415C10.7049 7.81222 10.4219 7.7433 10.1927 7.60547C9.96347 7.46038 9.79155 7.25363 9.67693 6.98521C9.56232 6.70954 9.50501 6.38309 9.50501 6.00586V0.75H10.0745V5.97321C10.0745 6.38672 10.1569 6.69866 10.3216 6.90904C10.4864 7.11216 10.7335 7.21373 11.063 7.21373H11.2564ZM3.86497 10.5C3.28474 10.5 2.78689 10.3839 2.37142 10.1518C1.96311 9.91964 1.6515 9.57868 1.4366 9.12891C1.22887 8.68638 1.125 8.15318 1.125 7.5293V5.55971H1.69448V7.5293C1.69448 8.03711 1.78044 8.46875 1.95236 8.82422C2.12428 9.17969 2.375 9.4481 2.70451 9.62946C3.03403 9.81808 3.43159 9.91239 3.89721 9.91239H4.36999C4.82128 9.91239 5.21526 9.81445 5.55193 9.61858C5.89577 9.42997 6.1644 9.15792 6.35781 8.80246C6.55122 8.45424 6.64792 8.05162 6.64792 7.59459V0.75H7.21741V7.5293C7.21741 8.12416 7.09563 8.64648 6.85208 9.09626C6.61569 9.54604 6.27901 9.89062 5.84205 10.13C5.40509 10.3767 4.9144 10.5 4.36999 10.5H3.86497ZM14.0179 6.19085C14.0179 6.69866 13.8675 7.09766 13.5666 7.38783C13.2658 7.67076 12.8754 7.81222 12.3954 7.81222H11.2457C11.217 7.81222 11.192 7.79409 11.1705 7.75781C11.149 7.71429 11.1383 7.63449 11.1383 7.51841C11.1383 7.40234 11.149 7.32255 11.1705 7.27902C11.192 7.23549 11.217 7.21373 11.2457 7.21373H12.3954C12.6103 7.21373 12.793 7.17745 12.9434 7.10491C13.101 7.03237 13.2228 6.92355 13.3087 6.77846C13.4019 6.62612 13.4484 6.44475 13.4484 6.23438V4.47154H14.0179V6.19085Z" fill="#666666" stroke="#666666" stroke-width="0.6"/>
</svg>
