<svg width="18" height="18" viewBox="0 0 18 18" fill="none" xmlns="http://www.w3.org/2000/svg">
<g clip-path="url(#clip0_533_891)">
<path d="M8.5119 12.9424C8.53917 12.9424 8.56303 12.9772 8.58348 13.0468C8.60393 13.1163 8.61416 13.2589 8.61416 13.4745C8.61416 13.6762 8.60393 13.8083 8.58348 13.8709C8.56985 13.9335 8.54599 13.9648 8.5119 13.9648H7.4893V12.9424H8.5119ZM7.59156 13.6832C7.59156 14.2465 7.48249 14.7403 7.26433 15.1646C7.04618 15.5889 6.73599 15.9158 6.33377 16.1453C5.93836 16.3818 5.47138 16.5 4.93281 16.5H3.65456L3.57275 15.4776H4.95326C5.29413 15.4776 5.59068 15.415 5.84292 15.2898C6.09516 15.1646 6.28945 14.9907 6.4258 14.7682C6.56215 14.5525 6.63032 14.3022 6.63032 14.017V13.9648H5.72021C5.27027 13.9648 4.89531 13.8953 4.59535 13.7562C4.30221 13.6171 4.08064 13.4084 3.93066 13.1302C3.78068 12.852 3.70569 12.5077 3.70569 12.0974V12.0452C3.70569 11.6001 3.7875 11.2036 3.95112 10.8559C4.11473 10.5081 4.34311 10.2369 4.63626 10.0421C4.93622 9.84737 5.27708 9.75 5.65885 9.75C6.25878 9.75 6.72917 9.95866 7.07004 10.376C7.41772 10.7863 7.59156 11.3532 7.59156 12.0765V13.6832ZM4.66693 12.0243C4.66693 12.2469 4.70102 12.4277 4.76919 12.5668C4.83737 12.699 4.94644 12.7964 5.09642 12.859C5.24641 12.9146 5.45433 12.9424 5.72021 12.9424H6.63032V12.0765C6.63032 11.7844 6.58942 11.541 6.50761 11.3462C6.43262 11.1445 6.32013 10.995 6.17015 10.8976C6.02017 10.7933 5.8361 10.7411 5.61795 10.7411C5.3248 10.7411 5.09302 10.8524 4.92258 11.075C4.75215 11.2975 4.66693 11.5966 4.66693 11.9722V12.0243ZM9.11344 12.9424C9.39977 12.9424 9.61792 12.8729 9.76791 12.7338C9.9247 12.5947 10.0031 12.4034 10.0031 12.16V10.5533H10.9746V12.16C10.9746 12.3269 11.0052 12.4695 11.0666 12.5877C11.128 12.699 11.22 12.7859 11.3427 12.8485C11.4722 12.9111 11.6393 12.9424 11.8438 12.9424C12.1301 12.9424 12.3517 12.8729 12.5085 12.7338C12.6653 12.5947 12.7437 12.4034 12.7437 12.16V10.5533H13.7049V12.16C13.7049 12.4104 13.7731 12.6051 13.9094 12.7442C14.0458 12.8764 14.2503 12.9424 14.523 12.9424C14.7957 12.9424 15.0002 12.8764 15.1365 12.7442C15.2797 12.6051 15.3513 12.4104 15.3513 12.16V10.5533H16.3228V12.1495C16.3228 12.7199 16.1625 13.165 15.8421 13.4849C15.5217 13.8049 15.082 13.9648 14.523 13.9648C14.1685 13.9648 13.8822 13.9127 13.664 13.8083C13.4458 13.6971 13.2856 13.5406 13.1834 13.3389C13.0539 13.5406 12.8766 13.6971 12.6516 13.8083C12.4267 13.9127 12.1574 13.9648 11.8438 13.9648C11.462 13.9648 11.1586 13.9127 10.9337 13.8083C10.7155 13.6971 10.5519 13.5406 10.4428 13.3389C10.3201 13.5406 10.1463 13.6971 9.9213 13.8083C9.69632 13.9127 9.42704 13.9648 9.11344 13.9648H8.30559C8.27832 13.9648 8.25446 13.9335 8.23401 13.8709C8.21356 13.8083 8.20333 13.6762 8.20333 13.4745C8.20333 13.2589 8.21356 13.1163 8.23401 13.0468C8.25446 12.9772 8.27832 12.9424 8.30559 12.9424H9.11344Z" fill="#666666" stroke="#666666" stroke-width="0.1"/>
<path d="M5.86803 7.12786C6.00966 7.12786 6.13519 7.09733 6.24463 7.03626C6.35408 6.97519 6.43777 6.88741 6.49571 6.7729C6.55365 6.6584 6.58262 6.52099 6.58262 6.36069L6.58262 4.50573H7.5L7.5 6.39504C7.5 6.77672 7.4324 7.10878 7.29721 7.39122C7.16202 7.66603 6.9721 7.87977 6.72747 8.03244C6.48283 8.17748 6.19635 8.25 5.86803 8.25H1.72854C1.34871 8.25 1.03004 8.16985 0.772532 8.00954C0.521459 7.84924 0.328326 7.62023 0.193133 7.32252C0.0643777 7.01718 0 6.65458 0 6.23473L0 4.50573H0.907725L0.907725 6.08588C0.907725 6.30725 0.936695 6.49809 0.994635 6.6584C1.05901 6.81107 1.15558 6.92939 1.28433 7.01336C1.41309 7.08969 1.57725 7.12786 1.77682 7.12786L5.86803 7.12786ZM3.44903 4.04199V3L4.42436 3V4.04199L3.44903 4.04199ZM1.875 4.04199L1.875 3H2.85032V4.04199H1.875Z" fill="#666666" stroke="#666666" stroke-width="0.1"/>
</g>
<defs>
<clipPath id="clip0_533_891">
<rect width="18" height="18" fill="white"/>
</clipPath>
</defs>
</svg>
